<svg id="e0hMxSyRtzw1" xmlns="http://www.w3.org/2000/svg" xmlns:xlink="http://www.w3.org/1999/xlink" viewBox="0 0 640 480" shape-rendering="geometricPrecision" text-rendering="geometricPrecision"><rect id="e0hMxSyRtzw2" width="407.132159" height="402.00951" rx="0" ry="0" transform="matrix(1.129352 0 0 1 90.102241 77.99049)" fill="rgb(210,219,237)" stroke="none" stroke-width="0"/><rect id="e0hMxSyRtzw3" width="125.583054" height="24.306397" rx="0" ry="0" transform="matrix(1 0 0 1 137.130758 128.628818)" fill="rgb(0,0,0)" stroke="none" stroke-width="0"/><rect id="e0hMxSyRtzw4" width="125.583054" height="24.306397" rx="0" ry="0" transform="matrix(1 0 0 1 137.130758 370.621211)" fill="rgb(0,0,0)" stroke="none" stroke-width="0"/><rect id="e0hMxSyRtzw5" width="125.583054" height="24.306397" rx="0" ry="0" transform="matrix(1 0 0 1 137.130758 254.211873)" fill="rgb(0,0,0)" stroke="none" stroke-width="0"/><line id="e0hMxSyRtzw6" x1="-184.323515" y1="0" x2="184.323515" y2="0" transform="matrix(1 0 0 1 321.454273 173.190547)" fill="none" stroke="rgb(63,87,135)" stroke-width="3"/><line id="e0hMxSyRtzw7" x1="-184.323515" y1="0" x2="184.323515" y2="0" transform="matrix(1 0 0 1 321.454273 415.18294)" fill="none" stroke="rgb(63,87,135)" stroke-width="3"/><line id="e0hMxSyRtzw8" x1="-184.323515" y1="0" x2="184.323515" y2="0" transform="matrix(1 0 0 1 321.454273 298.773602)" fill="none" stroke="rgb(63,87,135)" stroke-width="3"/><line id="e0hMxSyRtzw9" x1="-184.323515" y1="0" x2="184.323515" y2="0" transform="matrix(1 0 0 1 321.454273 205.599078)" fill="none" stroke="rgb(63,87,135)" stroke-width="3"/><line id="e0hMxSyRtzw10" x1="-184.323515" y1="0" x2="184.323515" y2="0" transform="matrix(1 0 0 1 321.454273 447.591471)" fill="none" stroke="rgb(63,87,135)" stroke-width="3"/><line id="e0hMxSyRtzw11" x1="-184.323515" y1="0" x2="184.323515" y2="0" transform="matrix(1 0 0 1 321.454273 331.182133)" fill="none" stroke="rgb(63,87,135)" stroke-width="3"/><line id="e0hMxSyRtzw12" x1="-184.323515" y1="0" x2="184.323515" y2="0" transform="matrix(1 0 0 1 321.454273 189.394812)" fill="none" stroke="rgb(63,87,135)" stroke-width="3"/><line id="e0hMxSyRtzw13" x1="-184.323515" y1="0" x2="184.323515" y2="0" transform="matrix(1 0 0 1 321.454273 431.387205)" fill="none" stroke="rgb(63,87,135)" stroke-width="3"/><line id="e0hMxSyRtzw14" x1="-184.323515" y1="0" x2="184.323515" y2="0" transform="matrix(1 0 0 1 321.454273 314.977867)" fill="none" stroke="rgb(63,87,135)" stroke-width="3"/><line id="e0hMxSyRtzw15" x1="-184.323515" y1="0" x2="184.323515" y2="0" transform="matrix(1 0 0 1 321.454273 221.803342)" fill="none" stroke="rgb(63,87,135)" stroke-width="3"/><line id="e0hMxSyRtzw16" x1="-184.323515" y1="0" x2="184.323515" y2="0" transform="matrix(1 0 0 1 321.454273 463.795734)" fill="none" stroke="rgb(63,87,135)" stroke-width="3"/><line id="e0hMxSyRtzw17" x1="-184.323515" y1="0" x2="184.323515" y2="0" transform="matrix(1 0 0 1 321.454273 347.386397)" fill="none" stroke="rgb(63,87,135)" stroke-width="3"/></svg>