<svg id="ee0o5qTFVES1" xmlns="http://www.w3.org/2000/svg" xmlns:xlink="http://www.w3.org/1999/xlink" viewBox="0 0 640 480" shape-rendering="geometricPrecision" text-rendering="geometricPrecision"><line id="ee0o5qTFVES2" x1="-275.914028" y1="164.535889" x2="275.914029" y2="-164.535888" transform="matrix(0.991081 0 0 1.279785 327.846502 256.986054)" fill="none" stroke="rgb(232,6,35)" stroke-width="3"/><polygon id="ee0o5qTFVES3" points="0,-27.250761 8.008798,-11.023164 25.917014,-8.420948 12.958507,4.210474 16.017595,22.046329 0,13.62538 -16.017595,22.046329 -12.958507,4.210474 -25.917014,-8.420948 -8.008798,-11.023164 0,-27.250761" transform="matrix(-0.668965 0.743294 -0.743294 -0.668965 100.671162 114.450086)" fill="rgb(210,219,237)" stroke="none" stroke-width="0"/><polygon id="ee0o5qTFVES4" points="0,-22.453002 6.598772,-9.08243 21.354074,-6.938359 10.677037,3.46918 13.197543,18.16486 0,11.226501 -13.197543,18.16486 -10.677037,3.46918 -21.354074,-6.938359 -6.598772,-9.08243 0,-22.453002" transform="matrix(0.12359 -0.992333 0.992333 0.12359 299.173408 135.454842)" fill="rgb(210,219,237)" stroke="none" stroke-width="0"/><polygon id="ee0o5qTFVES5" points="0,-13.120077 3.855894,-5.307183 12.477935,-4.054327 6.238967,2.027163 7.711788,10.614365 0,6.560039 -7.711788,10.614365 -6.238967,2.027163 -12.477935,-4.054327 -3.855894,-5.307183 0,-13.120077" transform="matrix(-0.926305 0.376773 -0.376773 -0.926305 138.264061 290.671468)" fill="rgb(210,219,237)" stroke="none" stroke-width="0"/><polygon id="ee0o5qTFVES6" points="0,-16.753028 4.923591,-6.776742 15.933076,-5.17697 7.966538,2.588485 9.847183,13.553484 0,8.376514 -9.847183,13.553484 -7.966538,2.588485 -15.933076,-5.17697 -4.923591,-6.776742 0,-16.753028" transform="matrix(0.796584 -0.604527 0.604527 0.796584 483.496923 59.760691)" fill="rgb(210,219,237)" stroke="none" stroke-width="0"/><polygon id="ee0o5qTFVES7" points="0,-24.742705 7.271699,-10.008634 23.531711,-7.645916 11.765855,3.822958 14.543397,20.017269 0,12.371353 -14.543397,20.017269 -11.765855,3.822958 -23.531711,-7.645916 -7.271699,-10.008634 0,-24.742705" transform="matrix(-0.774043 0.633133 -0.633133 -0.774043 445.011793 256.986054)" fill="rgb(210,219,237)" stroke="none" stroke-width="0"/><polygon id="ee0o5qTFVES8" points="0,-24.390649 7.168232,-9.866225 23.196886,-7.537125 11.598443,3.768563 14.336464,19.73245 0,12.195325 -14.336464,19.73245 -11.598443,3.768563 -23.196886,-7.537125 -7.168232,-9.866225 0,-24.390649" transform="matrix(-0.747409 0.664364 -0.664364 -0.747409 562.492715 410.177922)" fill="rgb(210,219,237)" stroke="none" stroke-width="0"/></svg>