<svg id="ey1YQ5Fw9cx1" xmlns="http://www.w3.org/2000/svg" xmlns:xlink="http://www.w3.org/1999/xlink" viewBox="0 0 640 480" shape-rendering="geometricPrecision" text-rendering="geometricPrecision"><line id="ey1YQ5Fw9cx2" x1="-282.62108" y1="0" x2="282.62108" y2="0" transform="matrix(1 0 0 1 320 102.271981)" fill="none" stroke="rgb(114,114,114)" stroke-width="3"/><line id="ey1YQ5Fw9cx3" x1="-282.62108" y1="0" x2="282.62108" y2="0" transform="matrix(1 0 0 1 320 286.970827)" fill="none" stroke="rgb(114,114,114)" stroke-width="3"/><line id="ey1YQ5Fw9cx4" x1="-282.62108" y1="0" x2="282.62108" y2="0" transform="matrix(1 0 0 1 320 197.805867)" fill="none" stroke="rgb(114,114,114)" stroke-width="3"/><line id="ey1YQ5Fw9cx5" x1="-282.62108" y1="0" x2="282.62108" y2="0" transform="matrix(1 0 0 1 320 377.728019)" fill="none" stroke="rgb(114,114,114)" stroke-width="3"/><line id="ey1YQ5Fw9cx6" x1="-94.73777" y1="130.562978" x2="94.737771" y2="-130.562978" transform="matrix(1 0 0 1 147.768184 291.879931)" fill="none" stroke="rgb(9,0,255)" stroke-width="3"/><line id="ey1YQ5Fw9cx7" x1="-26.271818" y1="-46.174712" x2="26.271818" y2="46.174712" transform="matrix(1 0 0 1 268.777773 207.491665)" fill="none" stroke="rgb(9,0,255)" stroke-width="3"/><line id="ey1YQ5Fw9cx8" x1="-65.281489" y1="98.718349" x2="65.281489" y2="-98.718349" transform="matrix(1 0 0 1 360.33108 154.948028)" fill="none" stroke="rgb(9,0,255)" stroke-width="3"/><line id="ey1YQ5Fw9cx9" x1="-31.844628" y1="-142.504713" x2="31.844629" y2="142.504714" transform="matrix(1 0 0 1 457.457198 198.734392)" fill="none" stroke="rgb(9,0,255)" stroke-width="3"/><line id="ey1YQ5Fw9cx10" x1="-56.659627" y1="66.87372" x2="56.659626" y2="-66.87372" transform="matrix(1 0 0 1 545.961454 274.365386)" fill="none" stroke="rgb(9,0,255)" stroke-width="3"/></svg>